<?xml version="1.0" encoding="utf-8"?>
<!-- Generator: Adobe Illustrator 19.1.0, SVG Export Plug-In . SVG Version: 6.00 Build 0)  -->
<svg version="1.1" id="Layer_1" xmlns="http://www.w3.org/2000/svg" xmlns:xlink="http://www.w3.org/1999/xlink" x="0px" y="0px"
	 width="160.8px" height="152.6px" viewBox="-193.2 344.5 160.8 152.6" style="enable-background:new -193.2 344.5 160.8 152.6;"
	 xml:space="preserve">
<style type="text/css">
	.st0{fill:#FFFFFF;}
	.st1{fill:#005DA9;}
	.st2{fill:#36918A;}
	.st3{fill:#6F2C90;}
	.st4{clip-path:url(#SVGID_2_);fill:#005DA9;}
	.st5{clip-path:url(#SVGID_4_);fill:#005DA9;}
	.st6{clip-path:url(#SVGID_6_);fill:#005DA9;}
	.st7{clip-path:url(#SVGID_8_);fill:#005DA9;}
	.st8{clip-path:url(#SVGID_10_);fill:#005DA9;}
	.st9{clip-path:url(#SVGID_12_);fill:#005DA9;}
	.st10{clip-path:url(#SVGID_14_);fill:#005DA9;}
	.st11{clip-path:url(#SVGID_16_);fill:#005DA9;}
	.st12{clip-path:url(#SVGID_18_);fill:#005DA9;}
	.st13{clip-path:url(#SVGID_20_);fill:#005DA9;}
	.st14{clip-path:url(#SVGID_22_);fill:#005DA9;}
	.st15{clip-path:url(#SVGID_24_);fill:#005DA9;}
	.st16{clip-path:url(#SVGID_26_);fill:#005DA9;}
	.st17{clip-path:url(#SVGID_28_);fill:#005DA9;}
</style>
<path class="st0" d="M-76.1,344.5l4,9.5l8.6-2l3,12.9h11.2v42.9l16.8,39.5l-8.2,3.5l2.3,10.1l-10.9,2.5v13.2h-52.2l-48.1,20.4
	l-4-9.5l-8.6,2l-3-12.9h-11.2v-42.9l-16.7-39.5l8.2-3.5l-2.3-10.1l10.9-2.5v-13.2h52.2L-76.1,344.5z M-73.9,339.3l-3.7,1.6l-47.3,20
	h-51.5h-4v4v10l-7.8,1.8l-3.9,0.9l0.9,3.9l1.6,6.8l-5.1,2.2l-3.7,1.6l1.6,3.7l16.4,38.8v42.1v4h4h8l2.3,9.8l0.9,3.9l3.9-0.9l5.4-1.2
	l2.7,6.4l1.6,3.7l3.7-1.6l47.3-20.1h51.4h4v-4v-10l7.8-1.8l3.9-0.9l-0.9-3.9l-1.6-6.8l5.1-2.2l3.7-1.6l-1.6-3.7L-45.3,407v-42.1v-4
	h-4h-8l-2.3-9.8l-0.9-3.9l-3.9,0.9l-5.4,1.2l-2.7-6.4L-73.9,339.3z"/>
<rect x="-176.4" y="364.9" transform="matrix(-0.9205 0.3907 -0.3907 -0.9205 -52.2257 852.2368)" class="st1" width="127.2" height="111.8"/>
<rect x="-176.4" y="364.9" transform="matrix(-0.9744 0.225 -0.225 -0.9744 -128.0187 856.1831)" class="st2" width="127.2" height="111.8"/>
<rect x="-176.4" y="364.9" class="st3" width="127.2" height="111.8"/>
<polygon class="st0" points="-49.2,413.6 -60.4,364.9 -119.1,364.9 -176.4,378.1 -176.4,428 -165.1,476.7 -106.4,476.7 -49.2,463.5 
	"/>
<g>
	<g>
		<defs>
			<rect id="SVGID_1_" x="-205" y="328.6" width="184.3" height="184.3"/>
		</defs>
		<clipPath id="SVGID_2_">
			<use xlink:href="#SVGID_1_"  style="overflow:visible;"/>
		</clipPath>
		<path class="st4" d="M-152.6,428.3c-3,0-5.3-0.6-7.2-2.6l2.5-2.5c1.2,1.2,2.9,1.7,4.8,1.7c2.3,0,3.5-0.9,3.5-2.4
			c0-0.7-0.2-1.3-0.6-1.7c-0.4-0.4-0.8-0.6-1.7-0.7l-2.4-0.3c-1.7-0.2-2.9-0.8-3.8-1.6c-0.9-0.9-1.4-2.2-1.4-3.9c0-3.5,2.6-6,6.9-6
			c2.7,0,4.7,0.7,6.4,2.3l-2.4,2.4c-1.2-1.2-2.7-1.4-4-1.4c-2.1,0-3,1.1-3,2.5c0,0.5,0.2,1,0.6,1.4c0.4,0.4,1,0.7,1.8,0.8l2.3,0.3
			c1.8,0.2,2.9,0.8,3.8,1.5c1.1,1,1.5,2.4,1.5,4.2C-145.2,426.2-148.4,428.3-152.6,428.3"/>
	</g>
	<g>
		<defs>
			<rect id="SVGID_3_" x="-205" y="328.6" width="184.3" height="184.3"/>
		</defs>
		<clipPath id="SVGID_4_">
			<use xlink:href="#SVGID_3_"  style="overflow:visible;"/>
		</clipPath>
		<path class="st5" d="M-136.6,428.3c-2.9,0-6.5-1.6-6.5-7.4c0-5.9,3.6-7.4,6.5-7.4c2,0,3.5,0.6,4.8,1.9l-2.4,2.4
			c-0.7-0.8-1.4-1.1-2.3-1.1c-0.9,0-1.5,0.3-2.1,0.9c-0.6,0.7-0.8,1.7-0.8,3.2s0.2,2.5,0.8,3.2c0.5,0.6,1.2,0.9,2.1,0.9
			c0.9,0,1.6-0.3,2.3-1.1l2.4,2.4C-133.1,427.7-134.6,428.3-136.6,428.3"/>
	</g>
	<g>
		<defs>
			<rect id="SVGID_5_" x="-205" y="328.6" width="184.3" height="184.3"/>
		</defs>
		<clipPath id="SVGID_6_">
			<use xlink:href="#SVGID_5_"  style="overflow:visible;"/>
		</clipPath>
		<path class="st6" d="M-129.3,408.3h3.7v2.9h-3.7V408.3z M-129.3,413.7h3.6v14.4h-3.6V413.7z"/>
	</g>
	<g>
		<defs>
			<rect id="SVGID_7_" x="-205" y="328.6" width="184.3" height="184.3"/>
		</defs>
		<clipPath id="SVGID_8_">
			<use xlink:href="#SVGID_7_"  style="overflow:visible;"/>
		</clipPath>
		<path class="st7" d="M-119.1,422.1c0,1.9,1.1,3.2,3.2,3.2c1.6,0,2.4-0.4,3.3-1.4l2.2,2.1c-1.5,1.5-2.9,2.3-5.5,2.3
			c-3.4,0-6.7-1.6-6.7-7.4c0-4.7,2.6-7.4,6.3-7.4c4,0,6.3,2.9,6.3,6.9v1.6h-9.1V422.1z M-114,418.1c-0.4-0.9-1.2-1.5-2.4-1.5
			s-2,0.6-2.4,1.5c-0.2,0.5-0.3,0.9-0.3,1.5h5.5C-113.6,419-113.7,418.6-114,418.1"/>
	</g>
	<g>
		<defs>
			<rect id="SVGID_9_" x="-205" y="328.6" width="184.3" height="184.3"/>
		</defs>
		<clipPath id="SVGID_10_">
			<use xlink:href="#SVGID_9_"  style="overflow:visible;"/>
		</clipPath>
		<path class="st8" d="M-98.6,428.2v-8.7c0-2-1.2-2.6-2.4-2.6c-1.1,0-2.4,0.7-2.4,2.6v8.7h-3.6v-14.5h3.5v1.3c0.9-1,2.3-1.5,3.6-1.5
			c1.4,0,2.6,0.5,3.4,1.3c1.2,1.2,1.5,2.5,1.5,4.1v9.2h-3.6V428.2z"/>
	</g>
	<g>
		<defs>
			<rect id="SVGID_11_" x="-205" y="328.6" width="184.3" height="184.3"/>
		</defs>
		<clipPath id="SVGID_12_">
			<use xlink:href="#SVGID_11_"  style="overflow:visible;"/>
		</clipPath>
		<path class="st9" d="M-85.7,428.3c-2.9,0-6.5-1.6-6.5-7.4c0-5.9,3.6-7.4,6.5-7.4c2,0,3.5,0.6,4.8,1.9l-2.4,2.4
			c-0.7-0.8-1.4-1.1-2.3-1.1s-1.5,0.3-2.1,0.9c-0.6,0.7-0.8,1.7-0.8,3.2s0.2,2.5,0.8,3.2c0.5,0.6,1.2,0.9,2.1,0.9s1.6-0.3,2.3-1.1
			l2.4,2.4C-82.2,427.7-83.7,428.3-85.7,428.3"/>
	</g>
	<g>
		<defs>
			<rect id="SVGID_13_" x="-205" y="328.6" width="184.3" height="184.3"/>
		</defs>
		<clipPath id="SVGID_14_">
			<use xlink:href="#SVGID_13_"  style="overflow:visible;"/>
		</clipPath>
		<path class="st10" d="M-75.6,422.1c0,1.9,1.1,3.2,3.2,3.2c1.6,0,2.4-0.4,3.3-1.4l2.2,2.1c-1.5,1.5-2.9,2.3-5.5,2.3
			c-3.4,0-6.7-1.6-6.7-7.4c0-4.7,2.6-7.4,6.3-7.4c4,0,6.3,2.9,6.3,6.9v1.6h-9.1V422.1z M-70.4,418.1c-0.4-0.9-1.2-1.5-2.4-1.5
			s-2,0.6-2.4,1.5c-0.2,0.5-0.3,0.9-0.3,1.6h5.5C-70.1,419-70.2,418.6-70.4,418.1"/>
	</g>
	<g>
		<defs>
			<rect id="SVGID_15_" x="-205" y="328.6" width="184.3" height="184.3"/>
		</defs>
		<clipPath id="SVGID_16_">
			<use xlink:href="#SVGID_15_"  style="overflow:visible;"/>
		</clipPath>
		<path class="st11" d="M-151.9,453.9c-2,0-3.8-0.7-5.1-2.1c-1.9-1.9-1.9-3.8-1.9-8.1c0-4.2,0-6.2,1.9-8.1c1.3-1.3,3.1-2.1,5.1-2.1
			c2.4,0,4.1,1,5.6,2.4l-1.4,1.4c-1.2-1.2-2.3-2-4.2-2c-1.3,0-2.6,0.5-3.4,1.4c-1.3,1.3-1.4,2.7-1.4,6.8c0,4.2,0.1,5.5,1.4,6.8
			c0.9,0.9,2.1,1.4,3.4,1.4c1.9,0,2.9-0.8,4.2-2l1.4,1.4C-147.9,452.9-149.5,453.9-151.9,453.9"/>
	</g>
	<g>
		<defs>
			<rect id="SVGID_17_" x="-205" y="328.6" width="184.3" height="184.3"/>
		</defs>
		<clipPath id="SVGID_18_">
			<use xlink:href="#SVGID_17_"  style="overflow:visible;"/>
		</clipPath>
		<path class="st12" d="M-133.2,452.3c-1,1-2.3,1.6-3.9,1.6c-1.7,0-3-0.6-3.9-1.6c-1.4-1.4-1.7-3.4-1.7-5.5c0-2.1,0.3-4.1,1.7-5.5
			c1-1,2.3-1.6,3.9-1.6c1.7,0,3,0.6,3.9,1.6c1.4,1.4,1.7,3.4,1.7,5.5C-131.6,449-131.8,450.9-133.2,452.3 M-134.7,442.6
			c-0.6-0.6-1.5-1-2.5-1s-1.8,0.4-2.5,1c-1,1-1.1,2.7-1.1,4.3c0,1.5,0.1,3.2,1.1,4.3c0.6,0.6,1.5,1,2.5,1s1.9-0.4,2.5-1
			c1-1,1.1-2.7,1.1-4.3S-133.7,443.6-134.7,442.6"/>
	</g>
	<g>
		<defs>
			<rect id="SVGID_19_" x="-205" y="328.6" width="184.3" height="184.3"/>
		</defs>
		<clipPath id="SVGID_20_">
			<use xlink:href="#SVGID_19_"  style="overflow:visible;"/>
		</clipPath>
		<path class="st13" d="M-118.1,453.7v-1.5c-1,1.1-2.4,1.7-3.9,1.7s-2.7-0.4-3.6-1.3c-1-1-1.4-2.3-1.4-3.9v-8.8h2v8.5
			c0,2.4,1.3,3.7,3.4,3.7s3.4-1.3,3.4-3.7v-8.5h2v13.8C-116.2,453.7-118.1,453.7-118.1,453.7z"/>
	</g>
	<g>
		<defs>
			<rect id="SVGID_21_" x="-205" y="328.6" width="184.3" height="184.3"/>
		</defs>
		<clipPath id="SVGID_22_">
			<use xlink:href="#SVGID_21_"  style="overflow:visible;"/>
		</clipPath>
		<path class="st14" d="M-101.9,453.7v-8.5c0-2.4-1.3-3.7-3.4-3.7s-3.4,1.3-3.4,3.7v8.5h-2v-13.8h2v1.5c1-1.1,2.3-1.7,3.9-1.7
			c1.5,0,2.7,0.4,3.5,1.3c1,1,1.4,2.2,1.4,3.8v8.8h-2V453.7z"/>
	</g>
	<g>
		<defs>
			<rect id="SVGID_23_" x="-205" y="328.6" width="184.3" height="184.3"/>
		</defs>
		<clipPath id="SVGID_24_">
			<use xlink:href="#SVGID_23_"  style="overflow:visible;"/>
		</clipPath>
		<path class="st15" d="M-89.3,453.9c-3.5,0-6.1-2.4-6.1-7.1c0-4.7,2.6-7.1,6.1-7.1c1.9,0,3.1,0.5,4.5,2l-1.4,1.3
			c-1-1.1-1.8-1.5-3.2-1.5c-1.3,0-2.5,0.5-3.2,1.6c-0.6,0.9-0.9,2-0.9,3.7c0,1.7,0.3,2.8,0.9,3.7c0.7,1,1.8,1.6,3.2,1.6
			c1.3,0,2.1-0.4,3.2-1.6l1.4,1.3C-86.2,453.4-87.4,453.9-89.3,453.9"/>
	</g>
	<g>
		<defs>
			<rect id="SVGID_25_" x="-205" y="328.6" width="184.3" height="184.3"/>
		</defs>
		<clipPath id="SVGID_26_">
			<use xlink:href="#SVGID_25_"  style="overflow:visible;"/>
		</clipPath>
		<path class="st16" d="M-80.6,433.8h2.3v2.3h-2.3V433.8z M-80.5,440h2v13.8h-2V440z"/>
	</g>
	<g>
		<defs>
			<rect id="SVGID_27_" x="-205" y="328.6" width="184.3" height="184.3"/>
		</defs>
		<clipPath id="SVGID_28_">
			<use xlink:href="#SVGID_27_"  style="overflow:visible;"/>
		</clipPath>
		<path class="st17" d="M-69.6,453.7c-2.4,0-3.5-1.6-3.5-3.7v-16.3h2v16.2c0,1.3,0.4,2,1.8,2h1.1v1.7h-1.4V453.7z"/>
	</g>
</g>
</svg>
